<mxfile host="app.diagrams.net" modified="2023-05-26T17:10:07.338Z" agent="Mozilla/5.0 (Windows NT 10.0; Win64; x64) AppleWebKit/537.36 (KHTML, like Gecko) Chrome/113.0.0.0 Safari/537.36" etag="Zl9Bpo-3bhxwvgMD3B0R" version="21.3.4" type="device">
  <diagram name="Página-1" id="iIOK9HpllSKhIcvAtd9d">
    <mxGraphModel dx="1450" dy="981" grid="0" gridSize="10" guides="1" tooltips="1" connect="1" arrows="1" fold="1" page="0" pageScale="1" pageWidth="827" pageHeight="1169" math="0" shadow="0">
      <root>
        <mxCell id="0" />
        <mxCell id="1" parent="0" />
        <mxCell id="7TDO-6F-P1FcmIOLOp07-1" value="festivals" style="swimlane;fontStyle=0;childLayout=stackLayout;horizontal=1;startSize=26;fillColor=#e51400;horizontalStack=0;resizeParent=1;resizeParentMax=0;resizeLast=0;collapsible=1;marginBottom=0;whiteSpace=wrap;html=1;fontSize=16;fontColor=#ffffff;strokeColor=#B20000;" parent="1" vertex="1">
          <mxGeometry x="67" y="-194" width="185" height="130" as="geometry" />
        </mxCell>
        <mxCell id="7TDO-6F-P1FcmIOLOp07-2" value="-nom &amp;lt;String&amp;gt;" style="text;strokeColor=none;fillColor=none;align=left;verticalAlign=top;spacingLeft=4;spacingRight=4;overflow=hidden;rotatable=0;points=[[0,0.5],[1,0.5]];portConstraint=eastwest;whiteSpace=wrap;html=1;fontSize=16;" parent="7TDO-6F-P1FcmIOLOp07-1" vertex="1">
          <mxGeometry y="26" width="185" height="26" as="geometry" />
        </mxCell>
        <mxCell id="7TDO-6F-P1FcmIOLOp07-3" value="-Anyo &amp;lt;int&amp;gt;" style="text;strokeColor=none;fillColor=none;align=left;verticalAlign=top;spacingLeft=4;spacingRight=4;overflow=hidden;rotatable=0;points=[[0,0.5],[1,0.5]];portConstraint=eastwest;whiteSpace=wrap;html=1;fontSize=16;" parent="7TDO-6F-P1FcmIOLOp07-1" vertex="1">
          <mxGeometry y="52" width="185" height="26" as="geometry" />
        </mxCell>
        <mxCell id="7TDO-6F-P1FcmIOLOp07-4" value="-descripcion &amp;lt;String&amp;gt;" style="text;strokeColor=none;fillColor=none;align=left;verticalAlign=top;spacingLeft=4;spacingRight=4;overflow=hidden;rotatable=0;points=[[0,0.5],[1,0.5]];portConstraint=eastwest;whiteSpace=wrap;html=1;fontSize=16;" parent="7TDO-6F-P1FcmIOLOp07-1" vertex="1">
          <mxGeometry y="78" width="185" height="26" as="geometry" />
        </mxCell>
        <mxCell id="7TDO-6F-P1FcmIOLOp07-5" value="-GratuitoOno &amp;lt;boolean&amp;gt;" style="text;strokeColor=none;fillColor=none;align=left;verticalAlign=top;spacingLeft=4;spacingRight=4;overflow=hidden;rotatable=0;points=[[0,0.5],[1,0.5]];portConstraint=eastwest;whiteSpace=wrap;html=1;fontSize=16;" parent="7TDO-6F-P1FcmIOLOp07-1" vertex="1">
          <mxGeometry y="104" width="185" height="26" as="geometry" />
        </mxCell>
        <mxCell id="7TDO-6F-P1FcmIOLOp07-6" value="Municipi" style="swimlane;fontStyle=0;childLayout=stackLayout;horizontal=1;startSize=26;fillColor=#6d8764;horizontalStack=0;resizeParent=1;resizeParentMax=0;resizeLast=0;collapsible=1;marginBottom=0;whiteSpace=wrap;html=1;fontSize=16;fontColor=#ffffff;strokeColor=#3A5431;" parent="1" vertex="1">
          <mxGeometry x="-143" y="-156" width="140" height="78" as="geometry" />
        </mxCell>
        <mxCell id="7TDO-6F-P1FcmIOLOp07-7" value="-nom &amp;lt;String&amp;gt;" style="text;strokeColor=none;fillColor=none;align=left;verticalAlign=top;spacingLeft=4;spacingRight=4;overflow=hidden;rotatable=0;points=[[0,0.5],[1,0.5]];portConstraint=eastwest;whiteSpace=wrap;html=1;fontSize=16;" parent="7TDO-6F-P1FcmIOLOp07-6" vertex="1">
          <mxGeometry y="26" width="140" height="26" as="geometry" />
        </mxCell>
        <mxCell id="7TDO-6F-P1FcmIOLOp07-8" value="-codi &amp;lt;int&amp;gt;" style="text;strokeColor=none;fillColor=none;align=left;verticalAlign=top;spacingLeft=4;spacingRight=4;overflow=hidden;rotatable=0;points=[[0,0.5],[1,0.5]];portConstraint=eastwest;whiteSpace=wrap;html=1;fontSize=16;" parent="7TDO-6F-P1FcmIOLOp07-6" vertex="1">
          <mxGeometry y="52" width="140" height="26" as="geometry" />
        </mxCell>
        <mxCell id="7TDO-6F-P1FcmIOLOp07-10" value="musicales" style="swimlane;fontStyle=0;childLayout=stackLayout;horizontal=1;startSize=26;fillColor=#f0a30a;horizontalStack=0;resizeParent=1;resizeParentMax=0;resizeLast=0;collapsible=1;marginBottom=0;whiteSpace=wrap;html=1;fontSize=16;fontColor=#000000;strokeColor=#BD7000;" parent="1" vertex="1">
          <mxGeometry x="-95" y="14" width="185" height="78" as="geometry" />
        </mxCell>
        <mxCell id="7TDO-6F-P1FcmIOLOp07-11" value="-tema &amp;lt;String&amp;gt;" style="text;strokeColor=none;fillColor=none;align=left;verticalAlign=top;spacingLeft=4;spacingRight=4;overflow=hidden;rotatable=0;points=[[0,0.5],[1,0.5]];portConstraint=eastwest;whiteSpace=wrap;html=1;fontSize=16;" parent="7TDO-6F-P1FcmIOLOp07-10" vertex="1">
          <mxGeometry y="26" width="185" height="26" as="geometry" />
        </mxCell>
        <mxCell id="7TDO-6F-P1FcmIOLOp07-12" value="-certamen &amp;lt;String&amp;gt;" style="text;strokeColor=none;fillColor=none;align=left;verticalAlign=top;spacingLeft=4;spacingRight=4;overflow=hidden;rotatable=0;points=[[0,0.5],[1,0.5]];portConstraint=eastwest;whiteSpace=wrap;html=1;fontSize=16;" parent="7TDO-6F-P1FcmIOLOp07-10" vertex="1">
          <mxGeometry y="52" width="185" height="26" as="geometry" />
        </mxCell>
        <mxCell id="7TDO-6F-P1FcmIOLOp07-14" value="magia" style="swimlane;fontStyle=0;childLayout=stackLayout;horizontal=1;startSize=26;fillColor=#f0a30a;horizontalStack=0;resizeParent=1;resizeParentMax=0;resizeLast=0;collapsible=1;marginBottom=0;whiteSpace=wrap;html=1;fontSize=16;fontColor=#000000;strokeColor=#BD7000;" parent="1" vertex="1">
          <mxGeometry x="107" y="14" width="180" height="52" as="geometry" />
        </mxCell>
        <mxCell id="7TDO-6F-P1FcmIOLOp07-15" value="-CantidadMagos &amp;lt;int&amp;gt;" style="text;strokeColor=none;fillColor=none;align=left;verticalAlign=top;spacingLeft=4;spacingRight=4;overflow=hidden;rotatable=0;points=[[0,0.5],[1,0.5]];portConstraint=eastwest;whiteSpace=wrap;html=1;fontSize=16;" parent="7TDO-6F-P1FcmIOLOp07-14" vertex="1">
          <mxGeometry y="26" width="180" height="26" as="geometry" />
        </mxCell>
        <mxCell id="7TDO-6F-P1FcmIOLOp07-18" value="Magos" style="swimlane;fontStyle=0;childLayout=stackLayout;horizontal=1;startSize=26;fillColor=#f0a30a;horizontalStack=0;resizeParent=1;resizeParentMax=0;resizeLast=0;collapsible=1;marginBottom=0;whiteSpace=wrap;html=1;fontSize=16;fontColor=#000000;strokeColor=#BD7000;" parent="1" vertex="1">
          <mxGeometry x="84" y="165" width="220" height="78" as="geometry" />
        </mxCell>
        <mxCell id="7TDO-6F-P1FcmIOLOp07-19" value="-Nombre astistico &amp;lt;String&amp;gt;" style="text;strokeColor=none;fillColor=none;align=left;verticalAlign=top;spacingLeft=4;spacingRight=4;overflow=hidden;rotatable=0;points=[[0,0.5],[1,0.5]];portConstraint=eastwest;whiteSpace=wrap;html=1;fontSize=16;" parent="7TDO-6F-P1FcmIOLOp07-18" vertex="1">
          <mxGeometry y="26" width="220" height="26" as="geometry" />
        </mxCell>
        <mxCell id="7TDO-6F-P1FcmIOLOp07-20" value="- numero Movil &amp;lt;String&amp;gt;" style="text;strokeColor=none;fillColor=none;align=left;verticalAlign=top;spacingLeft=4;spacingRight=4;overflow=hidden;rotatable=0;points=[[0,0.5],[1,0.5]];portConstraint=eastwest;whiteSpace=wrap;html=1;fontSize=16;" parent="7TDO-6F-P1FcmIOLOp07-18" vertex="1">
          <mxGeometry y="52" width="220" height="26" as="geometry" />
        </mxCell>
        <mxCell id="7TDO-6F-P1FcmIOLOp07-22" value="Teatro" style="swimlane;fontStyle=0;childLayout=stackLayout;horizontal=1;startSize=26;fillColor=#f0a30a;horizontalStack=0;resizeParent=1;resizeParentMax=0;resizeLast=0;collapsible=1;marginBottom=0;whiteSpace=wrap;html=1;fontSize=16;fontColor=#000000;strokeColor=#BD7000;" parent="1" vertex="1">
          <mxGeometry x="299" y="1" width="180" height="78" as="geometry" />
        </mxCell>
        <mxCell id="7TDO-6F-P1FcmIOLOp07-23" value="- nombre &amp;lt;String&amp;gt;" style="text;strokeColor=none;fillColor=none;align=left;verticalAlign=top;spacingLeft=4;spacingRight=4;overflow=hidden;rotatable=0;points=[[0,0.5],[1,0.5]];portConstraint=eastwest;whiteSpace=wrap;html=1;fontSize=16;" parent="7TDO-6F-P1FcmIOLOp07-22" vertex="1">
          <mxGeometry y="26" width="180" height="26" as="geometry" />
        </mxCell>
        <mxCell id="7TDO-6F-P1FcmIOLOp07-24" value="-Duracion&amp;nbsp; &amp;lt;Sring&amp;gt;" style="text;strokeColor=none;fillColor=none;align=left;verticalAlign=top;spacingLeft=4;spacingRight=4;overflow=hidden;rotatable=0;points=[[0,0.5],[1,0.5]];portConstraint=eastwest;whiteSpace=wrap;html=1;fontSize=16;" parent="7TDO-6F-P1FcmIOLOp07-22" vertex="1">
          <mxGeometry y="52" width="180" height="26" as="geometry" />
        </mxCell>
        <mxCell id="7TDO-6F-P1FcmIOLOp07-30" value="compañia teatral" style="swimlane;fontStyle=0;childLayout=stackLayout;horizontal=1;startSize=26;fillColor=#a0522d;horizontalStack=0;resizeParent=1;resizeParentMax=0;resizeLast=0;collapsible=1;marginBottom=0;whiteSpace=wrap;html=1;fontSize=16;fontColor=#ffffff;strokeColor=#6D1F00;" parent="1" vertex="1">
          <mxGeometry x="492" y="162" width="140" height="104" as="geometry" />
        </mxCell>
        <mxCell id="7TDO-6F-P1FcmIOLOp07-31" value="-nombre &amp;lt;String&amp;gt;" style="text;strokeColor=none;fillColor=none;align=left;verticalAlign=top;spacingLeft=4;spacingRight=4;overflow=hidden;rotatable=0;points=[[0,0.5],[1,0.5]];portConstraint=eastwest;whiteSpace=wrap;html=1;fontSize=16;" parent="7TDO-6F-P1FcmIOLOp07-30" vertex="1">
          <mxGeometry y="26" width="140" height="26" as="geometry" />
        </mxCell>
        <mxCell id="7TDO-6F-P1FcmIOLOp07-32" value="-url &amp;lt;String&amp;gt;" style="text;strokeColor=none;fillColor=none;align=left;verticalAlign=top;spacingLeft=4;spacingRight=4;overflow=hidden;rotatable=0;points=[[0,0.5],[1,0.5]];portConstraint=eastwest;whiteSpace=wrap;html=1;fontSize=16;" parent="7TDO-6F-P1FcmIOLOp07-30" vertex="1">
          <mxGeometry y="52" width="140" height="26" as="geometry" />
        </mxCell>
        <mxCell id="7TDO-6F-P1FcmIOLOp07-33" value="-fecha &amp;lt;String&amp;gt;" style="text;strokeColor=none;fillColor=none;align=left;verticalAlign=top;spacingLeft=4;spacingRight=4;overflow=hidden;rotatable=0;points=[[0,0.5],[1,0.5]];portConstraint=eastwest;whiteSpace=wrap;html=1;fontSize=16;" parent="7TDO-6F-P1FcmIOLOp07-30" vertex="1">
          <mxGeometry y="78" width="140" height="26" as="geometry" />
        </mxCell>
        <mxCell id="7TDO-6F-P1FcmIOLOp07-34" value="Actores" style="swimlane;fontStyle=0;childLayout=stackLayout;horizontal=1;startSize=26;fillColor=#a0522d;horizontalStack=0;resizeParent=1;resizeParentMax=0;resizeLast=0;collapsible=1;marginBottom=0;whiteSpace=wrap;html=1;fontSize=16;fontColor=#ffffff;strokeColor=#6D1F00;" parent="1" vertex="1">
          <mxGeometry x="479" y="346" width="227" height="78" as="geometry" />
        </mxCell>
        <mxCell id="7TDO-6F-P1FcmIOLOp07-35" value="- nombre &amp;lt;String&amp;gt;" style="text;strokeColor=none;fillColor=none;align=left;verticalAlign=top;spacingLeft=4;spacingRight=4;overflow=hidden;rotatable=0;points=[[0,0.5],[1,0.5]];portConstraint=eastwest;whiteSpace=wrap;html=1;fontSize=16;" parent="7TDO-6F-P1FcmIOLOp07-34" vertex="1">
          <mxGeometry y="26" width="227" height="26" as="geometry" />
        </mxCell>
        <mxCell id="7TDO-6F-P1FcmIOLOp07-36" value="-fecha nacimiento &amp;lt;Date&amp;gt;" style="text;strokeColor=none;fillColor=none;align=left;verticalAlign=top;spacingLeft=4;spacingRight=4;overflow=hidden;rotatable=0;points=[[0,0.5],[1,0.5]];portConstraint=eastwest;whiteSpace=wrap;html=1;fontSize=16;" parent="7TDO-6F-P1FcmIOLOp07-34" vertex="1">
          <mxGeometry y="52" width="227" height="26" as="geometry" />
        </mxCell>
        <mxCell id="7TDO-6F-P1FcmIOLOp07-41" value="Extends" style="endArrow=block;endSize=16;endFill=0;html=1;rounded=0;fontSize=12;curved=1;entryX=0.353;entryY=1.182;entryDx=0;entryDy=0;entryPerimeter=0;exitX=0.5;exitY=0;exitDx=0;exitDy=0;" parent="1" source="7TDO-6F-P1FcmIOLOp07-10" target="7TDO-6F-P1FcmIOLOp07-5" edge="1">
          <mxGeometry width="160" relative="1" as="geometry">
            <mxPoint x="-5" y="17" as="sourcePoint" />
            <mxPoint x="155" y="17" as="targetPoint" />
          </mxGeometry>
        </mxCell>
        <mxCell id="7TDO-6F-P1FcmIOLOp07-42" value="Extends" style="endArrow=block;endSize=16;endFill=0;html=1;rounded=0;fontSize=12;curved=1;exitX=0.5;exitY=0;exitDx=0;exitDy=0;" parent="1" source="7TDO-6F-P1FcmIOLOp07-14" edge="1">
          <mxGeometry width="160" relative="1" as="geometry">
            <mxPoint x="245" y="-6" as="sourcePoint" />
            <mxPoint x="204" y="-56" as="targetPoint" />
          </mxGeometry>
        </mxCell>
        <mxCell id="7TDO-6F-P1FcmIOLOp07-43" value="Extends" style="endArrow=block;endSize=16;endFill=0;html=1;rounded=0;fontSize=12;curved=1;entryX=1;entryY=0.5;entryDx=0;entryDy=0;" parent="1" target="7TDO-6F-P1FcmIOLOp07-5" edge="1">
          <mxGeometry width="160" relative="1" as="geometry">
            <mxPoint x="377" y="-2" as="sourcePoint" />
            <mxPoint x="537" y="-2" as="targetPoint" />
          </mxGeometry>
        </mxCell>
        <mxCell id="7TDO-6F-P1FcmIOLOp07-44" value="Relation" style="endArrow=open;html=1;endSize=12;startArrow=diamondThin;startSize=14;startFill=0;rounded=0;fontSize=12;entryX=0.551;entryY=1.109;entryDx=0;entryDy=0;entryPerimeter=0;" parent="1" source="7TDO-6F-P1FcmIOLOp07-18" target="7TDO-6F-P1FcmIOLOp07-15" edge="1">
          <mxGeometry relative="1" as="geometry">
            <mxPoint x="259" y="117" as="sourcePoint" />
            <mxPoint x="252" y="91" as="targetPoint" />
          </mxGeometry>
        </mxCell>
        <mxCell id="7TDO-6F-P1FcmIOLOp07-45" value="1,*" style="edgeLabel;resizable=0;html=1;align=left;verticalAlign=top;fontSize=16;" parent="7TDO-6F-P1FcmIOLOp07-44" connectable="0" vertex="1">
          <mxGeometry x="-1" relative="1" as="geometry" />
        </mxCell>
        <mxCell id="7TDO-6F-P1FcmIOLOp07-46" value="1,*" style="edgeLabel;resizable=0;html=1;align=right;verticalAlign=top;fontSize=16;" parent="7TDO-6F-P1FcmIOLOp07-44" connectable="0" vertex="1">
          <mxGeometry x="1" relative="1" as="geometry" />
        </mxCell>
        <mxCell id="7TDO-6F-P1FcmIOLOp07-47" value="Relation" style="endArrow=open;html=1;endSize=12;startArrow=diamondThin;startSize=14;startFill=0;rounded=0;fontSize=12;entryX=1;entryY=0.5;entryDx=0;entryDy=0;" parent="1" source="7TDO-6F-P1FcmIOLOp07-30" target="7TDO-6F-P1FcmIOLOp07-24" edge="1">
          <mxGeometry relative="1" as="geometry">
            <mxPoint x="604" y="147" as="sourcePoint" />
            <mxPoint x="764" y="147" as="targetPoint" />
          </mxGeometry>
        </mxCell>
        <mxCell id="7TDO-6F-P1FcmIOLOp07-49" value="1" style="edgeLabel;resizable=0;html=1;align=right;verticalAlign=top;fontSize=16;" parent="7TDO-6F-P1FcmIOLOp07-47" connectable="0" vertex="1">
          <mxGeometry x="1" relative="1" as="geometry" />
        </mxCell>
        <mxCell id="7TDO-6F-P1FcmIOLOp07-38" value="Relation" style="endArrow=open;html=1;endSize=12;startArrow=diamondThin;startSize=14;startFill=0;rounded=0;fontSize=12;entryX=1.011;entryY=0.184;entryDx=0;entryDy=0;entryPerimeter=0;exitX=0;exitY=0.5;exitDx=0;exitDy=0;" parent="1" source="7TDO-6F-P1FcmIOLOp07-4" target="7TDO-6F-P1FcmIOLOp07-7" edge="1">
          <mxGeometry relative="1" as="geometry">
            <mxPoint x="-80" y="-10" as="sourcePoint" />
            <mxPoint x="2" y="-6" as="targetPoint" />
          </mxGeometry>
        </mxCell>
        <mxCell id="7TDO-6F-P1FcmIOLOp07-39" value="1,*" style="edgeLabel;resizable=0;html=1;align=left;verticalAlign=top;fontSize=16;" parent="7TDO-6F-P1FcmIOLOp07-38" connectable="0" vertex="1">
          <mxGeometry x="-1" relative="1" as="geometry" />
        </mxCell>
        <mxCell id="7TDO-6F-P1FcmIOLOp07-40" value="1" style="edgeLabel;resizable=0;html=1;align=right;verticalAlign=top;fontSize=16;" parent="7TDO-6F-P1FcmIOLOp07-38" connectable="0" vertex="1">
          <mxGeometry x="1" relative="1" as="geometry" />
        </mxCell>
        <mxCell id="7TDO-6F-P1FcmIOLOp07-56" value="Relation" style="endArrow=open;html=1;endSize=12;startArrow=diamondThin;startSize=14;startFill=0;rounded=0;fontSize=12;exitX=0.25;exitY=0;exitDx=0;exitDy=0;" parent="1" source="7TDO-6F-P1FcmIOLOp07-34" edge="1">
          <mxGeometry relative="1" as="geometry">
            <mxPoint x="453" y="318" as="sourcePoint" />
            <mxPoint x="573" y="276" as="targetPoint" />
          </mxGeometry>
        </mxCell>
        <mxCell id="7TDO-6F-P1FcmIOLOp07-57" value="1,*" style="edgeLabel;resizable=0;html=1;align=left;verticalAlign=top;fontSize=16;" parent="7TDO-6F-P1FcmIOLOp07-56" connectable="0" vertex="1">
          <mxGeometry x="-1" relative="1" as="geometry" />
        </mxCell>
        <mxCell id="7TDO-6F-P1FcmIOLOp07-58" value="1" style="edgeLabel;resizable=0;html=1;align=right;verticalAlign=top;fontSize=16;" parent="7TDO-6F-P1FcmIOLOp07-56" connectable="0" vertex="1">
          <mxGeometry x="1" relative="1" as="geometry" />
        </mxCell>
        <mxCell id="7TDO-6F-P1FcmIOLOp07-59" value="1,*" style="text;html=1;strokeColor=none;fillColor=none;align=center;verticalAlign=middle;whiteSpace=wrap;rounded=0;fontSize=16;" parent="1" vertex="1">
          <mxGeometry x="513" y="133" width="32" height="30" as="geometry" />
        </mxCell>
      </root>
    </mxGraphModel>
  </diagram>
</mxfile>
